<svg xmlns="http://www.w3.org/2000/svg" viewBox="0 0 392.54 46.35"><title>资源 1</title><g id="图层_2" data-name="图层 2"><g id="图层_1-2" data-name="图层 1"><path d="M40.72,23.69q-.56.88-.81,1.38a2.16,2.16,0,0,0-.25,1q0,.47-3.29,6.38a67,67,0,0,1-5.1,8.2,18.27,18.27,0,0,1-4.51,4q-2.69,1.72-3.57,1.72A2.11,2.11,0,0,1,20.83,45,6,6,0,0,1,20,43.58a6.93,6.93,0,0,1-.66-1.75,47.37,47.37,0,0,1-.16-7.48,38,38,0,0,1,.66-5.63q.44-2,.88-3.32T21.52,23q.81-2,.59-2c-.15,0-.35.24-.63.72s-.62,1.18-1,2.1a145.76,145.76,0,0,1-7.51,14q-.31.38-2,2.85A19.57,19.57,0,0,1,8.19,44Q5.5,46.65,2.68,45.27A3,3,0,0,1,.74,43.9a2.88,2.88,0,0,1-.69-2.38A35.49,35.49,0,0,1,.4,35.11q.53-4.85,1-8t1.75-9q1.25-5.85,1.63-7.73A22.85,22.85,0,0,0,5.87,7.13q.62-2.28.69-2.6a1.67,1.67,0,0,1,1-1.69,3,3,0,0,1,2.06-.16,2.57,2.57,0,0,1,1.53.91A4.54,4.54,0,0,1,12,8.86,80.74,80.74,0,0,0,7.5,27Q5.68,37.64,6.18,37.83q1,.25,2.38-2.75,3.5-5.76,8.48-15.24t5.22-10L24,6.76l.81-1.41q.47-.81.78-1.31l.63-1A3.08,3.08,0,0,1,27.21,2q2.63,0,3.88,3A3.55,3.55,0,0,1,31,7.35s-.18.65-.53,1.81-.64,2.19-.84,3.07a31.59,31.59,0,0,0-1.56,5.13q-.37,2-1.31,6.32-2,8.89-2,11.83a11.78,11.78,0,0,0,.41,4q.25.94,1.35-.56a21.94,21.94,0,0,0,2.13-3.75q1-2.25,1.66-3.38Q35,23,39.35,12.67q1.81-5.19,2.85-7.41a6.44,6.44,0,0,1,2-2.78,2.27,2.27,0,0,1,1.38-.19,2.41,2.41,0,0,1,1.66.53q.59.53.78.72a1.8,1.8,0,0,1,.56,1.31Q48,6.79,45.48,13t-3.35,8A24.15,24.15,0,0,1,40.72,23.69Z"/><path d="M56.18,17.62q3.69,0,5.38,1.78a5.09,5.09,0,0,1,1.69,3.35v.5q0,1.31-1.75,4.32a8.3,8.3,0,0,1-2.69,2.78,6.9,6.9,0,0,1-3.63,1.28,17.16,17.16,0,0,1-3.47-.22,18.36,18.36,0,0,0-2-.28.87.87,0,0,0-.69.44,5.21,5.21,0,0,0-.44,2.57,3.69,3.69,0,0,0,1,2.44,2.78,2.78,0,0,0,1.91.69,5.25,5.25,0,0,0,2.13-.44,10.32,10.32,0,0,0,2.35-1.56A3.88,3.88,0,0,1,58,34.13a2.16,2.16,0,0,1,1.5.75,2.44,2.44,0,0,1,.81,1.44q-.19,1.44-2.91,3.79a9.18,9.18,0,0,1-6.16,2.35,8,8,0,0,1-5.63-2,7.32,7.32,0,0,1-2.19-5.69q0-1.44.16-3.07a15.35,15.35,0,0,1,1.09-4,22.59,22.59,0,0,1,3-5.13,12,12,0,0,1,4.44-3.85A10.09,10.09,0,0,1,56.18,17.62Zm-.44,4.57a4.37,4.37,0,0,0-2.35,1.35,14.61,14.61,0,0,0-2.66,3.1q.12.75,2.06.75a6.58,6.58,0,0,0,2.47-.28,10.08,10.08,0,0,0,1.81-1.56,4.58,4.58,0,0,0,1.35-1.78q0-1.38-2-1.56Z"/><path d="M69.19,21.5l.63-2.38q1-1.94,3.5-8.73A62.92,62.92,0,0,0,75.83,3a1.58,1.58,0,0,1,.38-1.06,1.13,1.13,0,0,1,.88-.44,2.82,2.82,0,0,1,1.81-.38l1,1a3.55,3.55,0,0,1,1.44,2.38,6.17,6.17,0,0,1-.41,2.16q-.41,1.1-2.35,5.16-.25.69-.69,1.6l-.69,1.44a2.48,2.48,0,0,0-.25.66,1.48,1.48,0,0,1-.09.41q-.09.28-.28.75t-.5,1.16a39.88,39.88,0,0,0-2.5,6.1,1.23,1.23,0,0,1-.31.91c-.21,0-.31.17-.31.5v.19a14.91,14.91,0,0,1-1,3.32q-2.69,9.07-2.69,11.36t-1.44,3q-1.82.5-2.94-1.88a8.94,8.94,0,0,1-.38-5.82,8.62,8.62,0,0,0,.69-2.63,29.37,29.37,0,0,1,1.28-4.29q1.09-3.1,1.41-3.72.62,0,.63-1.38A2.38,2.38,0,0,1,69.19,21.5Z"/><path d="M81.58,34.57l-.12.94a1.32,1.32,0,0,0,.81,1.19,2.55,2.55,0,0,0,1.25.41,5.14,5.14,0,0,0,1.5-.53A12.07,12.07,0,0,0,87.4,35a17.11,17.11,0,0,1,1.66-1.25q.34-.19.63-.38a2.83,2.83,0,0,0,.41-.31q.38-.38.56-.19,0,.63.5.09a1.26,1.26,0,0,1,1.06-.47,2.86,2.86,0,0,1,1,.31q.47.25.47.44a1,1,0,0,0,.25.94,1.8,1.8,0,0,1-.56,1.31l-2.5,3.32q-.31-.06-1.09.69a2.22,2.22,0,0,1-1.47.75,1.37,1.37,0,0,1-.5.19c-.25.13-.38.27-.38.44Q86.4,42,81.83,42a6.6,6.6,0,0,1-2.75-.31A12.48,12.48,0,0,1,78,40.77a9.17,9.17,0,0,0-1.75-2.32,9.64,9.64,0,0,1,.06-4.25,27.62,27.62,0,0,1,2-6.69,9.7,9.7,0,0,1,1.6-2.72,21.61,21.61,0,0,1,2.53-3.16A8.44,8.44,0,0,1,86,19.52a12.22,12.22,0,0,1,3.41-.84A4.17,4.17,0,0,1,93,20.37,5.21,5.21,0,0,1,94.38,23a6.78,6.78,0,0,1,0,3.1,3.27,3.27,0,0,1-2.1,2.28,2.36,2.36,0,0,1-2.91-.59,3.65,3.65,0,0,1,.09-2.44q.47-1.69-.34-1.69a1.87,1.87,0,0,0-1.25.38,19.31,19.31,0,0,0-5.26,7.32Z"/><path d="M116.75,21.75a2.35,2.35,0,0,1,1.53,0q1,.25,1,.63a2.23,2.23,0,0,0,.22.88c.15.33.28.5.41.5q.62.06.13,1a4.51,4.51,0,0,1-1.38,1.56,6.27,6.27,0,0,0-1.63,1.22,1.28,1.28,0,0,0,.06.66q.81,1.94-1.09,5.13a21,21,0,0,1-5.19,5.76,12.48,12.48,0,0,1-6,2.88q-1.44.5-3.32-1.19A6.25,6.25,0,0,1,99,38.45,4.19,4.19,0,0,1,98,35.89a25.44,25.44,0,0,1,3.35-10q2.91-5.22,6.66-6.91a4.89,4.89,0,0,1,2.69-.38,2.33,2.33,0,0,1,1.94,1.19q.94,1.82-.44,2.32-.69,0-.69.56a7.08,7.08,0,0,0,2.57-.12A5.4,5.4,0,0,0,116.75,21.75Zm-5.69,5.19-1.06.31a1.34,1.34,0,0,1-.69-.31l-1-1.25-1.06,1.06a11.31,11.31,0,0,0-2.41,3.88,14.73,14.73,0,0,0-1.1,3.88q-.13,1.44.22,1.78a1.29,1.29,0,0,0,.88.38,5.26,5.26,0,0,0,2-.72A3.92,3.92,0,0,1,108,35a1.13,1.13,0,0,0,.38-.16,1.53,1.53,0,0,0,.19-.28,4.35,4.35,0,0,0,.25-.53,11.62,11.62,0,0,1,1.63-2.44,8.55,8.55,0,0,0,1.6-2.22,2.44,2.44,0,0,0,.22-1.41q-.13-.56-.28-.66a2.29,2.29,0,0,0-.44-.19A1.94,1.94,0,0,1,111.05,26.94Z"/><path d="M151.85,40.2a9.31,9.31,0,0,1-3.35-.72q-1.85-.72-1.85-2.1V33.51q0-2.5-.44-2.88-.94-.5-2.5,1.41A48.68,48.68,0,0,0,140,37.45Q137.9,41,136.52,40q-2.38-.75-1.81-3,1.63-5.32,2.25-8.38-.5-.81-2.06.25l-.59.38-.69.44a7.9,7.9,0,0,0-.66.5,40.6,40.6,0,0,0-3.16,4.47A28.4,28.4,0,0,1,126.63,39a3.44,3.44,0,0,1-.81,1.41,1,1,0,0,1-1.06,0,4,4,0,0,1-2.63-3.91,38.75,38.75,0,0,1,1.81-9.17A7.61,7.61,0,0,0,125,23.69a30.93,30.93,0,0,1,.75-3.22,7,7,0,0,1,.81-2.22q.44-.5,1.81-.34a2,2,0,0,1,1.75,1q1.63,1.69.19,5.76a31.47,31.47,0,0,0-1.56,4.19,36.67,36.67,0,0,1,4-4.88A8.32,8.32,0,0,1,135.3,22a5.57,5.57,0,0,1,2.28-.69,4.13,4.13,0,0,1,2.53,1.47,6.19,6.19,0,0,1,1.28,3.35l-.31,3.25a28,28,0,0,1,3.82-4.07q2.63-2,4.32-.25a5.41,5.41,0,0,1,2.35,3.07,10.24,10.24,0,0,1,.53,4.57,11.23,11.23,0,0,0,.5,4.69,2.09,2.09,0,0,1,.22,2Q152.41,40.2,151.85,40.2Z"/><path d="M166.15,32.07a5.64,5.64,0,0,1-2.35-.31q-.69-.38-1,.94l-.19,1.38a3.11,3.11,0,0,0,.81,2.75,1.68,1.68,0,0,0,1.56.53,3.52,3.52,0,0,0,1.88-.72A14.93,14.93,0,0,0,168.62,35,11.51,11.51,0,0,1,170,33.7q.62-1.13,3.13-.44,1.38,1-.38,4.13a10.34,10.34,0,0,1-1.91,2.13,16.64,16.64,0,0,1-2.53,2.06,8.36,8.36,0,0,1-7,.31q-4.69-1.88-3.88-9.26a8,8,0,0,0-.09-2.53A2.2,2.2,0,0,0,156.7,29l-.84-.72q-1-.94-1-1.31a2.52,2.52,0,0,1,.22-1,1.84,1.84,0,0,1,.44-.78,6.43,6.43,0,0,1,1.66-.59,2.61,2.61,0,0,1,.75.34q.53.31.53.56.31.63,1.38-1.31l.56-1.13a12.86,12.86,0,0,1,2.38-2.6,14.06,14.06,0,0,1,2.41-1.75,10.33,10.33,0,0,1,2.6-.81,9.64,9.64,0,0,1,2.38-.28,7.17,7.17,0,0,1,4.32,2.57,3.81,3.81,0,0,1,1.31,2.91,5.85,5.85,0,0,1-.5,3.35q-.25.94-2.47,2.85a14.77,14.77,0,0,1-3.6,2.47A12.67,12.67,0,0,1,166.15,32.07ZM170.43,23q-.81-.81-2.38.31a5.51,5.51,0,0,0-1.72,1.13,14.12,14.12,0,0,0-1.85,1.88q-.75.94-.44,1.13c0,.08,0,.15.16.19a3.07,3.07,0,0,0,.56.09l.66.06a4.41,4.41,0,0,0,1.16-.16,5.34,5.34,0,0,0,1.69-.72,8.07,8.07,0,0,0,2-2.1Q170.75,23.31,170.43,23Z"/><path d="M194.24,19.62a1.29,1.29,0,0,1-.28-.78,3.33,3.33,0,0,1,.53-1.35q.53-.94.94-.91t1.88,0a7.09,7.09,0,0,0,2-.22,1.33,1.33,0,0,0,.75-.81,15.38,15.38,0,0,1,1.25-2.31q2.19-4.25,3.07-4.94a3.91,3.91,0,0,1,2-.81A3.34,3.34,0,0,1,208.6,8a2.13,2.13,0,0,1,.06,2.63,17.72,17.72,0,0,1-1.19,1.94q-.81,1.19-1.19,1.88-1.06,1.5-.31,1.63a16.09,16.09,0,0,0,3.69-.34q2.94-.47,3.32,2.16.19,1.5-.31,1.81a7.4,7.4,0,0,1-2.88.31,27.62,27.62,0,0,1-3.79.34,10.87,10.87,0,0,0-2.16.16,1.86,1.86,0,0,0-1.19,1.19,1.74,1.74,0,0,0-.44.69q-.37.75-1.56,2.94a63.81,63.81,0,0,0-2.5,9.82,2.74,2.74,0,0,0,.13,1.75q.31.5,2,.69a10.74,10.74,0,0,0,6.57-1.81l1.69-1q.44-.75,1.38.81a3.22,3.22,0,0,1,.38.75,4.47,4.47,0,0,1-2.63,3.94,14.39,14.39,0,0,1-5.38,2.1,12.88,12.88,0,0,1-4.26.19,4.89,4.89,0,0,1-2.69-1.69,7.19,7.19,0,0,1-1.56-2.41l-.31-.5q-.38-.31-.25-3.22a22,22,0,0,1,.44-4.1q.38-1.5,2.13-6.32l1.69-3.63-2.5-.69A1.06,1.06,0,0,1,194.24,19.62Z"/><path d="M220,22.06a13.82,13.82,0,0,1,5.63-3.25q3.75-.88,5.26.69,2.44,1.06,2.82,4.44.5,5.19-3.44,10.89a20.12,20.12,0,0,1-6.38,5.82q-1.63,1.13-5.76,1.38a4,4,0,0,1-2.44-1.19q-2.82-2.94-2.44-5.19l.13-1.44q-.31-.31-.16-.5l.22-.25q.38,0,.25-.59a5.43,5.43,0,0,1,.44-2.28,15.27,15.27,0,0,1,1.44-3.13A20.63,20.63,0,0,1,220,22.06Zm7.1,8.17q.09-.22.34-.94a6.46,6.46,0,0,1,.47-1.1,5.09,5.09,0,0,0,.25-1.91q0-1.53-.47-1.85a1.69,1.69,0,0,0-1.13-.19,6.1,6.1,0,0,0-1.44.81q-4.76,4-5.69,8.57a3.44,3.44,0,0,0,.34,2.35q.53.78,1.78.41A5.46,5.46,0,0,0,223.81,35l1.31-1.28q.31-.31.53-.56a3.11,3.11,0,0,0,.44-.72q.22-.47.34-.69a6.88,6.88,0,0,0,.34-.78Q227,30.44,227.09,30.22Z"/><path d="M289.07,44.71q-.38.44-.56.41a2.21,2.21,0,0,0-.38,0,.77.77,0,0,0-.47.28,1.06,1.06,0,0,1-.78.28,2,2,0,0,1-2-1.13,6.88,6.88,0,0,1-.47-2.66,24.33,24.33,0,0,1,.13-2.66q.12-1.13,3.54-14.83T291.45,10q-.31.44-1.5,2.63t-2.5,4.44l-4.38,8.2a18.73,18.73,0,0,0-1.53,2.63,55,55,0,0,1-4.29,6.32,18.88,18.88,0,0,1-3.75,4.1q-3.13,2.85-4.88,2.85a3.94,3.94,0,0,1-3.1-1.63,5.55,5.55,0,0,1-1.35-3.63,41.43,41.43,0,0,1,.63-5.94q2.5-11,3.19-13.08a11.83,11.83,0,0,0,.69-2.63,1.14,1.14,0,0,0-.12-.69,1.36,1.36,0,0,0-.38.44,135.67,135.67,0,0,0-7.26,14.08q-8.95,16.46-10.26,18a2.69,2.69,0,0,1-1.94-1.22,4.35,4.35,0,0,1-1-2.85,7.38,7.38,0,0,1,.84-3.32,29,29,0,0,1,1.69-3q.84-1.28,1.16-1.78a3.68,3.68,0,0,0,.44-1.44,25.82,25.82,0,0,0,2.32-4.07q1.88-2.94,4.63-7.88,5.82-10.64,7.57-13.08.12-.25.28-.66t.69-1.44q.53-1,1-1.85,1.31-2.07,2.19-2.06A4.42,4.42,0,0,1,273.49,3a5.48,5.48,0,0,1,1.56,4.1q0,.75-.69,5.44-.81,3.88-2.5,11.67t-1.69,8.67c0,.58.15.88.44.88s.42-.19.75-.56a9.28,9.28,0,0,0,1-1.41q.88-1.34,2-2.94t2.13-3.16q3.13-4.88,10.14-17.27.62-.94,1.94-3A28.13,28.13,0,0,1,291.88.5a2.93,2.93,0,0,1,1.91-.5,4.27,4.27,0,0,1,2.69,1.47A4.36,4.36,0,0,1,298,4.63a30,30,0,0,1-.91,5.73q-.91,4-2.1,7.76-.25,1.31-1.88,7.42a40.94,40.94,0,0,0-1.63,8V34q-.94,1.75-.94,6.76A7.16,7.16,0,0,1,289.07,44.71Z"/><path d="M315.16,21.75a2.35,2.35,0,0,1,1.53,0q1,.25,1,.63a2.23,2.23,0,0,0,.22.88c.15.33.28.5.41.5.42,0,.46.38.13,1a4.53,4.53,0,0,1-1.38,1.56,6.27,6.27,0,0,0-1.63,1.22,1.28,1.28,0,0,0,.06.66q.81,1.94-1.09,5.13a21,21,0,0,1-5.19,5.76,12.48,12.48,0,0,1-6,2.88q-1.44.5-3.32-1.19a6.25,6.25,0,0,1-2.5-2.32,4.19,4.19,0,0,1-.94-2.57,25.44,25.44,0,0,1,3.35-10q2.91-5.22,6.66-6.91a4.89,4.89,0,0,1,2.69-.38,2.33,2.33,0,0,1,1.94,1.19q.94,1.82-.44,2.32-.69,0-.69.56a7.08,7.08,0,0,0,2.57-.12A5.4,5.4,0,0,0,315.16,21.75Zm-5.69,5.19-1.06.31a1.34,1.34,0,0,1-.69-.31l-1-1.25-1.06,1.06a11.31,11.31,0,0,0-2.41,3.88,14.73,14.73,0,0,0-1.1,3.88q-.13,1.44.22,1.78a1.29,1.29,0,0,0,.88.38,5.26,5.26,0,0,0,2-.72A3.92,3.92,0,0,1,306.4,35a1.13,1.13,0,0,0,.38-.16,1.53,1.53,0,0,0,.19-.28,4.35,4.35,0,0,0,.25-.53,11.62,11.62,0,0,1,1.63-2.44,8.55,8.55,0,0,0,1.6-2.22,2.44,2.44,0,0,0,.22-1.41q-.13-.56-.28-.66a2.29,2.29,0,0,0-.44-.19A1.94,1.94,0,0,1,309.47,26.94Z"/><path d="M337.25,22.56l1.56-.5a3.69,3.69,0,0,1,2,.66q1,.66,1,1.35c0,.13.13.29.38.5a3.88,3.88,0,0,1,1.13,2.75,28.74,28.74,0,0,1-1,5.6,37.29,37.29,0,0,0-1,5,4.35,4.35,0,0,0,.25,1.69,3.6,3.6,0,0,1,.28,1.1,1.65,1.65,0,0,1-.56.94,2.36,2.36,0,0,1-1.78.59,3.13,3.13,0,0,1-2.35-1.35,5.08,5.08,0,0,1-1.13-3.38,33,33,0,0,1,1.38-7.16q.06-.37.13-.66l.09-.44c0-.1,0-.2.06-.28a1.5,1.5,0,0,0,0-.34c0-.15-.08-.22-.25-.22a1.84,1.84,0,0,0-.78.31,8.64,8.64,0,0,0-1,.69q-.47.38-1.31,1.1t-1.47,1.16q-.63.44-2.63,2.13-5.13,4.44-5.6,4.44a5,5,0,0,1-1.88-.88q-1.41-.88-1.41-1.91A18.78,18.78,0,0,1,322.55,31a56.27,56.27,0,0,1,2.69-6.63,10.86,10.86,0,0,0,.44-2.31q.5-3,1.81-3a3.18,3.18,0,0,1,2.41,1.25,3.86,3.86,0,0,1,1.1,2.53,9.42,9.42,0,0,1-.59,3,9.88,9.88,0,0,1-.84,2,1.76,1.76,0,0,0,.38-.31,12.32,12.32,0,0,1,2-1.5q1.94-1.44,3.25-2.25Z"/><path d="M357.68,32.07a5.65,5.65,0,0,1-2.35-.31q-.69-.38-1,.94l-.19,1.38a3.11,3.11,0,0,0,.81,2.75,1.68,1.68,0,0,0,1.56.53,3.52,3.52,0,0,0,1.88-.72A14.93,14.93,0,0,0,360.15,35a11.43,11.43,0,0,1,1.38-1.31q.62-1.13,3.13-.44,1.38,1-.37,4.13a10.33,10.33,0,0,1-1.91,2.13,16.73,16.73,0,0,1-2.53,2.06,8.36,8.36,0,0,1-7,.31Q348.14,40,349,32.63a8.07,8.07,0,0,0-.09-2.53,2.2,2.2,0,0,0-.63-1.06l-.84-.72q-1-.94-1-1.31a2.52,2.52,0,0,1,.22-1,1.84,1.84,0,0,1,.44-.78,6.44,6.44,0,0,1,1.66-.59,2.6,2.6,0,0,1,.75.34q.53.31.53.56.31.63,1.38-1.31l.56-1.13a12.88,12.88,0,0,1,2.38-2.6,14,14,0,0,1,2.41-1.75,10.35,10.35,0,0,1,2.6-.81,9.64,9.64,0,0,1,2.38-.28A7.18,7.18,0,0,1,366,20.18a3.81,3.81,0,0,1,1.31,2.91,5.85,5.85,0,0,1-.5,3.35q-.25.94-2.47,2.85a14.78,14.78,0,0,1-3.6,2.47A12.67,12.67,0,0,1,357.68,32.07ZM362,23q-.81-.81-2.38.31a5.52,5.52,0,0,0-1.72,1.13A14.18,14.18,0,0,0,356,26.31c-.5.63-.65,1-.44,1.13,0,.08,0,.15.16.19a3.07,3.07,0,0,0,.56.09l.66.06a4.41,4.41,0,0,0,1.16-.16,5.35,5.35,0,0,0,1.69-.72,8.08,8.08,0,0,0,2-2.1Q362.28,23.31,362,23Z"/><path d="M386.62,14.3q0,.63.94.63a25.36,25.36,0,0,0,2.69-.25,5.53,5.53,0,0,1,.81-.12,1.77,1.77,0,0,1,1.13.13,2.8,2.8,0,0,1,.28,2.13q-.22,1.5-.84,1.75s-.48.13-1.31.38a57.12,57.12,0,0,1-5.69.69q-1.63,3.13-1.91,3.72a2.91,2.91,0,0,0-.28.72l-2.63,5.51c-.17,0-.25.13-.25.38q.25.75-.06,1a5,5,0,0,0-.88,1q.31.31-.31,1.44a9.46,9.46,0,0,1-.88,3.19,13.37,13.37,0,0,0,.13,1.44c0,.21.15.29.31.25a8.66,8.66,0,0,0,1.69-.06q.94-.44-.88,4.38a18,18,0,0,1-2,2.53q-1,1.09-1.35,1.1-5.26-.06-4.38-5.88a8.68,8.68,0,0,0,.31-1.38,4.69,4.69,0,0,1,.69-2,.38.38,0,0,0,0-.56,14.38,14.38,0,0,1,1.13-3.69q-.38-.5.31-1.1t.47-.91q-.22-.31.22-1.19t1-2a13.14,13.14,0,0,0,.72-1.5,12,12,0,0,1,1-2.57q1.09-2.38,1.41-2.94.5-.25-.41-.41a26.23,26.23,0,0,0-3.6-.16,8.13,8.13,0,0,1-3.88-.69,1.76,1.76,0,0,1-.19-2.06,2.13,2.13,0,0,1,2-1.31l8-.69.19-1.06.47-.72.28-.44a1.26,1.26,0,0,0,.13-.28,4.85,4.85,0,0,0,.25-1.19,7.92,7.92,0,0,0,1.25-3.19,20.26,20.26,0,0,0,1.5-2.63q1.88-3.88,4.57-2.13,1.88,1.25,1.69,2.38a3.25,3.25,0,0,1-.44,1.28,13,13,0,0,0-.88,2.16,7.46,7.46,0,0,0-1.63,3.38A5.78,5.78,0,0,1,386.62,14.3Z"/></g></g></svg>